<svg xmlns="http://www.w3.org/2000/svg" viewBox="0 0 24.38 24.38"><defs><style>.cls-1{fill:#ff8f71;}</style></defs><g id="Capa_2" data-name="Capa 2"><g id="styles"><path class="cls-1" d="M12.19,24.38A12.19,12.19,0,1,1,24.38,12.19,12.21,12.21,0,0,1,12.19,24.38ZM12.19,1A11.19,11.19,0,1,0,23.38,12.19,11.2,11.2,0,0,0,12.19,1Z"/><circle class="cls-1" cx="12.27" cy="7.14" r="2.78"/><path class="cls-1" d="M8.1,23.14V13.68A9.94,9.94,0,0,1,1.68,7.07a10,10,0,0,1,2-2.88,7.57,7.57,0,0,0,7.2,7.11h3.52a4.31,4.31,0,0,1,3.28,1.54l4.84,4.85A11.08,11.08,0,0,1,20.89,20l-4.45-4.46v7.54A11.74,11.74,0,0,1,8.1,23.14Z"/></g></g></svg>