<svg xmlns="http://www.w3.org/2000/svg" viewBox="0 0 24.38 24.38"><defs><style>.cls-1{fill:none;stroke:#000;stroke-miterlimit:10;}</style></defs><g id="Capa_2" data-name="Capa 2"><g id="styles"><path class="cls-1" d="M12.19.5A11.69,11.69,0,1,0,23.88,12.19,11.7,11.7,0,0,0,12.19.5Zm0,23.33A11.64,11.64,0,1,1,23.83,12.19,11.64,11.64,0,0,1,12.19,23.83Z"/><path d="M16.42,22.52a11.34,11.34,0,0,0,4.09-2.91l-4.09-4.09Z"/><path d="M1.91,7.72A11,11,0,0,0,1,12.17a11.21,11.21,0,0,0,7.1,10.41V13.66A9.86,9.86,0,0,1,1.91,7.72Z"/><path d="M10.85,11.28h3.52a4.31,4.31,0,0,1,3.28,1.54l4.46,4.47A11.18,11.18,0,0,0,3.71,4.87,7.58,7.58,0,0,0,10.85,11.28Zm1.4-6.94A2.78,2.78,0,1,1,9.47,7.12,2.78,2.78,0,0,1,12.25,4.34Z"/></g></g></svg>