<svg xmlns="http://www.w3.org/2000/svg" viewBox="0 0 24.38 24.38"><defs><style>.cls-1{fill:#040404;}.cls-2{fill:#f2f2f2;}</style></defs><g id="Capa_2" data-name="Capa 2"><g id="styles"><circle class="cls-1" cx="12.19" cy="12.19" r="11.69"/><path d="M12.19,24.38A12.19,12.19,0,1,1,24.38,12.19,12.21,12.21,0,0,1,12.19,24.38ZM12.19,1A11.19,11.19,0,1,0,23.38,12.19,11.2,11.2,0,0,0,12.19,1Z"/><circle class="cls-2" cx="12.36" cy="7.06" r="2.7"/><path class="cls-2" d="M8.31,22.64V13.42A9.66,9.66,0,0,1,2.05,7,9.67,9.67,0,0,1,4,4.19a7.37,7.37,0,0,0,7,6.92h3.43a4.22,4.22,0,0,1,3.19,1.5l4.71,4.72a10.87,10.87,0,0,1-1.57,2.24l-4.34-4.33v7.34A11.43,11.43,0,0,1,8.31,22.64Z"/></g></g></svg>