<svg xmlns="http://www.w3.org/2000/svg" viewBox="0 0 25.44 15.94"><defs><style>.cls-1{fill:#040404;}</style></defs><g id="Capa_2" data-name="Capa 2"><g id="styles"><path class="cls-1" d="M7.38,0a9.23,9.23,0,0,1,2,.2A4.34,4.34,0,0,1,11,.84,3,3,0,0,1,12,2a4.14,4.14,0,0,1,.36,1.83,3.39,3.39,0,0,1-.54,2,3.94,3.94,0,0,1-1.59,1.3A3.74,3.74,0,0,1,12.4,8.59a4.41,4.41,0,0,1,.7,2.52,4.4,4.4,0,0,1-.45,2.05,3.94,3.94,0,0,1-1.24,1.41,5.48,5.48,0,0,1-1.78.82,8.15,8.15,0,0,1-2,.26H0V0ZM6.93,6.32a2.47,2.47,0,0,0,1.52-.44A1.63,1.63,0,0,0,9,4.46a2,2,0,0,0-.19-.9A1.45,1.45,0,0,0,8.32,3a2.1,2.1,0,0,0-.76-.28,5.18,5.18,0,0,0-.89-.07H3.45V6.32ZM7.13,13a4.28,4.28,0,0,0,1-.1,2.46,2.46,0,0,0,.81-.33,1.71,1.71,0,0,0,.56-.63,2.13,2.13,0,0,0,.21-1A2.05,2.05,0,0,0,9,9.19a2.93,2.93,0,0,0-1.8-.51H3.45V13ZM18,12.93a2.74,2.74,0,0,0,2,.69,2.78,2.78,0,0,0,1.63-.48,2,2,0,0,0,.83-1h2.74a5.19,5.19,0,0,1-2,2.92,5.87,5.87,0,0,1-3.28.88,6.4,6.4,0,0,1-2.42-.43,5.13,5.13,0,0,1-1.83-1.21,5.64,5.64,0,0,1-1.15-1.89A6.94,6.94,0,0,1,14.12,10a6.6,6.6,0,0,1,.42-2.37,5.56,5.56,0,0,1,1.19-1.9,5.64,5.64,0,0,1,1.83-1.26A5.89,5.89,0,0,1,19.93,4a5.4,5.4,0,0,1,2.51.56,5,5,0,0,1,1.77,1.5,6.34,6.34,0,0,1,1,2.15,8.44,8.44,0,0,1,.22,2.52H17.25A3.15,3.15,0,0,0,18,12.93ZM21.59,7a2.32,2.32,0,0,0-1.76-.63,2.71,2.71,0,0,0-1.24.25,2.46,2.46,0,0,0-.78.63,2.2,2.2,0,0,0-.42.8,3.18,3.18,0,0,0-.14.74h5.06A3,3,0,0,0,21.59,7Zm-5-5.93H23V2.6H16.61Z"/></g></g></svg>