<svg xmlns="http://www.w3.org/2000/svg" viewBox="0 0 22.13 21.58"><defs><style>.cls-1{fill:#040404;fill-rule:evenodd;}</style></defs><g id="Capa_2" data-name="Capa 2"><g id="styles"><path class="cls-1" d="M11.06,0A11.06,11.06,0,0,0,7.57,21.56c.55.1.75-.24.75-.53s0-1,0-1.88c-3.08.66-3.73-1.49-3.73-1.49A2.91,2.91,0,0,0,3.35,16c-1-.68.08-.67.08-.67a2.32,2.32,0,0,1,1.69,1.14,2.35,2.35,0,0,0,3.22.92A2.42,2.42,0,0,1,9,16c-2.45-.27-5-1.22-5-5.46a4.3,4.3,0,0,1,1.13-3,4,4,0,0,1,.11-2.93s.93-.3,3,1.13a10.55,10.55,0,0,1,5.54,0c2.11-1.43,3-1.13,3-1.13A3.91,3.91,0,0,1,17,7.52a4.26,4.26,0,0,1,1.14,3c0,4.25-2.59,5.18-5.05,5.45a2.69,2.69,0,0,1,.75,2c0,1.48,0,2.68,0,3s.2.64.77.53A11.06,11.06,0,0,0,11.06,0Z"/></g></g></svg>