<svg xmlns="http://www.w3.org/2000/svg" viewBox="0 0 138.6 140.71"><defs><style>.cls-1{fill:#f2f2f2;}.cls-2{fill:#ff8f71;}</style></defs><g id="Capa_2" data-name="Capa 2"><g id="styles"><circle cx="107.43" cy="109.54" r="31.17"/><circle cx="65.97" cy="65.97" r="65.97"/><g id="Iso"><path class="cls-1" d="M91.32,99.53H53.66c-5.38,0-9.77-3.78-9.77-8.42V64.32a1.2,1.2,0,0,0-1.2-1.2H23.27a3,3,0,1,1,0-5.92H42.69a1.19,1.19,0,0,0,1.2-1.2V46.74c0-4.64,4.39-8.42,9.77-8.42l31.9.07a3.21,3.21,0,0,1,3.42,3,3.22,3.22,0,0,1-3.43,3h0l-31.89-.08a2.74,2.74,0,0,0-2.9,2.51V56A1.2,1.2,0,0,0,52,57.2H91.27c5.37,0,9.75,3.77,9.77,8.4l0,7.57a7.63,7.63,0,0,1-1.67,4.74,1.19,1.19,0,0,0,0,1.49,7.64,7.64,0,0,1,1.69,4.73v7C101.09,95.75,96.7,99.53,91.32,99.53ZM52.13,63.12a1.38,1.38,0,0,0-1.38,1.38V91.11a2.74,2.74,0,0,0,2.91,2.51H91.32a2.74,2.74,0,0,0,2.91-2.51v-7a2.74,2.74,0,0,0-2.91-2.51H74.93a1.38,1.38,0,0,1-1.38-1.38V77.09a1.38,1.38,0,0,1,1.38-1.38H91.3A3.17,3.17,0,0,0,93.36,75a2.35,2.35,0,0,0,.85-1.78l0-7.57a2.74,2.74,0,0,0-2.91-2.5Z"/></g><rect class="cls-2" x="19.84" y="57.2" width="52.65" height="5.91" rx="1.54"/><path class="cls-1" d="M110.19,110.66v-2.51h-.47v-.27h.47v-.39c0-.47.14-1,.76-1a.82.82,0,0,1,.28,0v.27a1.6,1.6,0,0,0-.3,0c-.33,0-.45.23-.45.71v.37h.6v.27h-.6v2.51Z"/><path class="cls-1" d="M111.55,108.64v-.76h.28c0,.09,0,.27,0,.62a1,1,0,0,1,1-.68v.31a1,1,0,0,0-1,1.09v1.44h-.29Z"/><path class="cls-1" d="M115.57,109.27a1.31,1.31,0,0,1-1.26,1.46c-.75,0-1.22-.62-1.22-1.46a1.29,1.29,0,0,1,1.25-1.45C115.08,107.82,115.57,108.39,115.57,109.27Zm-2.17,0c0,.66.35,1.19.94,1.19s.93-.49.93-1.19-.34-1.18-1-1.18S113.4,108.61,113.4,109.27Z"/><path class="cls-1" d="M116.25,108.58v-.7h.28a4.73,4.73,0,0,1,0,.53.91.91,0,0,1,.92-.59c.5,0,.93.28.93,1v1.8h-.28v-1.75c0-.49-.21-.81-.69-.81-.65,0-.88.54-.88,1.14v1.42h-.29Z"/><path class="cls-1" d="M118.87,107.88h.51V107h.29v.86h.66v.27h-.66V110c0,.3.07.48.33.48a1.43,1.43,0,0,0,.29,0v.25a1,1,0,0,1-.35,0c-.36,0-.56-.18-.56-.63v-1.92h-.51Z"/><path class="cls-1" d="M120.94,109.31c0,.71.36,1.15.89,1.15a.78.78,0,0,0,.79-.52h.29a1.06,1.06,0,0,1-1.09.79c-.85,0-1.18-.73-1.18-1.44s.4-1.47,1.21-1.47a1.14,1.14,0,0,1,1.13,1.26,1.69,1.69,0,0,1,0,.23Zm1.74-.25c0-.55-.3-1-.84-1s-.83.4-.89,1Z"/><path class="cls-1" d="M123.65,108.58v-.7h.28a4.73,4.73,0,0,1,0,.53.91.91,0,0,1,.92-.59c.49,0,.93.28.93,1v1.8h-.29v-1.75c0-.49-.2-.81-.68-.81-.65,0-.88.54-.88,1.14v1.42h-.29Z"/><path class="cls-1" d="M128.85,106.57v4.09h-.27c0-.07,0-.33,0-.46a.92.92,0,0,1-.93.53c-.72,0-1.15-.59-1.15-1.43s.47-1.48,1.22-1.48c.55,0,.78.23.86.41v-1.66Zm-2.07,2.72c0,.76.39,1.17.87,1.17.72,0,.92-.51.92-1.25s-.17-1.12-.87-1.12C127.15,108.09,126.78,108.52,126.78,109.29Z"/><path class="cls-2" d="M86,113.25v3.27c0,.26,0,.52,0,.79h-.52a2.17,2.17,0,0,1,0-.38.88.88,0,0,1-.87.45c-.73,0-1.17-.58-1.17-1.45s.48-1.51,1.26-1.51c.48,0,.71.19.78.35v-1.52Zm-2,2.66c0,.66.3,1,.73,1,.64,0,.77-.48.77-1.06s-.12-1-.73-1S84,115.26,84,115.91Z"/><path class="cls-2" d="M87.2,116c0,.53.27.92.74.92a.61.61,0,0,0,.64-.41h.55a1.16,1.16,0,0,1-1.21.86,1.29,1.29,0,0,1-1.27-1.45c0-.84.43-1.51,1.3-1.51a1.22,1.22,0,0,1,1.23,1.35,1.85,1.85,0,0,1,0,.24Zm1.43-.37c0-.44-.22-.8-.69-.8s-.67.33-.72.8Z"/><path class="cls-2" d="M90.08,114.49c.36,1.12.62,2,.7,2.32h0c.07-.34.37-1.19.76-2.32h.55l-1,2.82h-.6l-1-2.82Z"/><path class="cls-2" d="M92.89,116c0,.53.27.92.73.92a.6.6,0,0,0,.64-.41h.55a1.16,1.16,0,0,1-1.21.86,1.28,1.28,0,0,1-1.26-1.45c0-.84.43-1.51,1.29-1.51a1.21,1.21,0,0,1,1.23,1.35,1.85,1.85,0,0,1,0,.24Zm1.42-.37c0-.44-.22-.8-.68-.8s-.68.33-.73.8Z"/><path class="cls-2" d="M95.48,117.31v-4.06H96v4.06Z"/><path class="cls-2" d="M99.3,115.9A1.34,1.34,0,0,1,98,117.38a1.32,1.32,0,0,1-1.31-1.47A1.34,1.34,0,0,1,98,114.42,1.32,1.32,0,0,1,99.3,115.9Zm-2.11,0c0,.61.3,1,.78,1s.77-.4.77-1-.28-1-.78-1S97.19,115.27,97.19,115.9Z"/><path class="cls-2" d="M100.45,117v1.44h-.54v-3.24c0-.23,0-.47,0-.69h.53c0,.09,0,.26,0,.43a1,1,0,0,1,.9-.5c.65,0,1.13.55,1.13,1.41,0,1-.55,1.55-1.23,1.55A.83.83,0,0,1,100.45,117Zm1.47-1.13c0-.58-.26-1-.72-1s-.77.36-.77,1,.18,1,.73,1S101.92,116.52,101.92,115.85Z"/><path class="cls-2" d="M103.49,116c0,.53.27.92.73.92a.6.6,0,0,0,.64-.41h.55a1.16,1.16,0,0,1-1.21.86,1.28,1.28,0,0,1-1.26-1.45c0-.84.42-1.51,1.29-1.51a1.22,1.22,0,0,1,1.23,1.35,1.85,1.85,0,0,1,0,.24Zm1.42-.37c0-.44-.22-.8-.68-.8s-.68.33-.73.8Z"/><path class="cls-2" d="M106.07,115.26c0-.38,0-.6,0-.77h.54c0,.08,0,.31,0,.56a1,1,0,0,1,1-.63V115c-.58,0-1,.28-1,1v1.34h-.54Z"/><path class="cls-1" d="M111.71,113.23v4.08h-.28c0-.06,0-.32,0-.46a.91.91,0,0,1-.93.53c-.72,0-1.16-.59-1.16-1.42s.48-1.49,1.23-1.49a.86.86,0,0,1,.86.41v-1.65ZM109.64,116c0,.75.39,1.16.86,1.16.73,0,.93-.5.93-1.25s-.17-1.12-.88-1.12C110,114.74,109.64,115.18,109.64,116Z"/><path class="cls-1" d="M112.68,116c0,.71.37,1.15.89,1.15a.79.79,0,0,0,.8-.51h.29a1.07,1.07,0,0,1-1.1.78c-.84,0-1.17-.73-1.17-1.43s.39-1.48,1.21-1.48a1.15,1.15,0,0,1,1.13,1.26,1.69,1.69,0,0,1,0,.23Zm1.75-.25c0-.54-.3-1-.84-1s-.83.4-.89,1Z"/><path class="cls-1" d="M115.48,116.55a.73.73,0,0,0,.78.57c.49,0,.69-.23.69-.53s-.13-.47-.75-.62-.9-.39-.9-.76.29-.74.92-.74a.9.9,0,0,1,1,.78h-.29a.65.65,0,0,0-.7-.52c-.48,0-.62.24-.62.46s.14.38.68.51c.79.19,1,.45,1,.86s-.41.82-1,.82a1,1,0,0,1-1.07-.83Z"/><path class="cls-1" d="M117.94,113.23h.29v.54h-.29Zm0,1.31h.29v2.77h-.29Z"/><path class="cls-1" d="M121.26,117.12c0,.89-.39,1.36-1.2,1.36a1,1,0,0,1-1.09-.83h.29a.76.76,0,0,0,.81.56c.72,0,.91-.46.91-1.16v-.29a.87.87,0,0,1-.92.55,1.22,1.22,0,0,1-1.15-1.38c0-.93.53-1.46,1.19-1.46s.81.27.88.49c0-.16,0-.36,0-.42h.27c0,.1,0,.54,0,.8Zm-2-1.2c0,.65.34,1.12.87,1.12.69,0,.9-.45.9-1.17s-.22-1.13-.88-1.13S119.22,115.28,119.22,115.92Z"/><path class="cls-1" d="M122.17,115.24c0-.25,0-.48,0-.7h.28a4.56,4.56,0,0,1,0,.52.91.91,0,0,1,.92-.59c.5,0,.94.28.94,1v1.79H124v-1.75c0-.49-.21-.81-.69-.81-.65,0-.88.54-.88,1.15v1.41h-.28Z"/><path class="cls-1" d="M125.28,116c0,.71.36,1.15.89,1.15a.79.79,0,0,0,.8-.51h.29a1.07,1.07,0,0,1-1.1.78c-.84,0-1.17-.73-1.17-1.43s.39-1.48,1.21-1.48a1.15,1.15,0,0,1,1.13,1.26,1.69,1.69,0,0,1,0,.23Zm1.75-.25c0-.54-.3-1-.84-1s-.83.4-.89,1Z"/><path class="cls-1" d="M128,115.47c0-.44,0-.83,0-1h.35v.6a1,1,0,0,1,.93-.65v.37a.93.93,0,0,0-.92,1.06v1.41H128Z"/></g></g></svg>