<svg xmlns="http://www.w3.org/2000/svg" viewBox="0 0 134.88 136.93"><defs><style>.cls-1{fill:#f2f2f2;}.cls-2{fill:#ff8f71;}</style></defs><g id="Capa_2" data-name="Capa 2"><g id="styles"><circle cx="104.54" cy="106.59" r="30.33"/><circle cx="64.19" cy="64.19" r="64.19"/><g id="Iso"><path class="cls-1" d="M88.86,96.86H52.22c-5.24,0-9.51-3.68-9.51-8.2V62.59a1.17,1.17,0,0,0-1.16-1.17H22.64a2.91,2.91,0,1,1,0-5.75H41.55a1.17,1.17,0,0,0,1.16-1.17v-9c0-4.52,4.27-8.2,9.51-8.2l31,.07a3.14,3.14,0,0,1,3.33,2.88,3.14,3.14,0,0,1-3.34,2.87h0l-31-.07a2.66,2.66,0,0,0-2.82,2.45v9a1.17,1.17,0,0,0,1.17,1.17H88.82c5.22,0,9.49,3.66,9.5,8.17l0,7.36a7.37,7.37,0,0,1-1.62,4.62,1.16,1.16,0,0,0,0,1.45,7.43,7.43,0,0,1,1.64,4.6v6.79C98.37,93.18,94.11,96.86,88.86,96.86ZM50.73,61.42a1.35,1.35,0,0,0-1.34,1.35V88.66a2.66,2.66,0,0,0,2.83,2.44H88.86a2.66,2.66,0,0,0,2.84-2.44V81.87a2.66,2.66,0,0,0-2.84-2.44h-16a1.34,1.34,0,0,1-1.34-1.34V75a1.34,1.34,0,0,1,1.34-1.35H88.84a3,3,0,0,0,2-.72,2.28,2.28,0,0,0,.83-1.73l0-7.36a2.68,2.68,0,0,0-2.83-2.44Z"/></g><rect class="cls-2" x="19.31" y="55.67" width="51.24" height="5.76" rx="1.5"/><path class="cls-1" d="M103.37,103.71v4h-.27c0-.07,0-.32,0-.45a.88.88,0,0,1-.9.51c-.7,0-1.13-.57-1.13-1.38s.46-1.45,1.2-1.45c.54,0,.75.23.83.4v-1.61Zm-2,2.65c0,.73.38,1.13.84,1.13.71,0,.91-.49.91-1.22s-.17-1.09-.86-1.09C101.71,105.18,101.35,105.6,101.35,106.36Z"/><path class="cls-1" d="M104.31,106.37c0,.69.36,1.12.87,1.12a.74.74,0,0,0,.77-.5h.29a1,1,0,0,1-1.07.76c-.82,0-1.14-.71-1.14-1.39s.38-1.44,1.17-1.44a1.12,1.12,0,0,1,1.1,1.23v.22Zm1.7-.24a.84.84,0,0,0-.82-.95c-.55,0-.8.39-.86.95Z"/><path class="cls-1" d="M107,106.94a.72.72,0,0,0,.77.56c.47,0,.67-.22.67-.52s-.13-.46-.73-.6-.88-.38-.88-.74.28-.72.9-.72a.87.87,0,0,1,.95.76h-.28a.64.64,0,0,0-.68-.51c-.47,0-.6.23-.6.45s.13.37.66.5c.76.18,1,.43,1,.84s-.4.79-1,.79a.93.93,0,0,1-1-.81Z"/><path class="cls-1" d="M109.43,103.71h.28v.52h-.28Zm0,1.27h.28v2.71h-.28Z"/><path class="cls-1" d="M112.66,107.5c0,.86-.38,1.32-1.17,1.32a1,1,0,0,1-1.06-.81h.28a.75.75,0,0,0,.79.55c.7,0,.89-.45.89-1.13v-.28a.85.85,0,0,1-.9.54,1.19,1.19,0,0,1-1.12-1.35c0-.91.52-1.42,1.16-1.42s.79.26.86.47c0-.15,0-.34,0-.41h.26c0,.1,0,.53,0,.79Zm-2-1.18c0,.64.34,1.1.85,1.1.67,0,.88-.44.88-1.14s-.21-1.1-.86-1.1S110.67,105.71,110.67,106.32Z"/><path class="cls-1" d="M113.54,105.66V105h.27a4.42,4.42,0,0,1,0,.51.89.89,0,0,1,.9-.57c.48,0,.9.27.9,1v1.75h-.28V106c0-.48-.19-.79-.66-.79-.64,0-.86.53-.86,1.11v1.39h-.28Z"/><path class="cls-1" d="M116.58,106.37c0,.69.35,1.12.86,1.12a.76.76,0,0,0,.78-.5h.28a1,1,0,0,1-1.07.76c-.82,0-1.14-.71-1.14-1.39s.38-1.44,1.17-1.44a1.12,1.12,0,0,1,1.11,1.23,1.62,1.62,0,0,1,0,.22Zm1.69-.24a.84.84,0,0,0-.82-.95c-.55,0-.8.39-.86.95Z"/><path class="cls-1" d="M119.22,105.72c0-.45,0-.65,0-.74h.28c0,.09,0,.26,0,.61a1,1,0,0,1,.94-.67v.3a1,1,0,0,0-.94,1.07v1.4h-.28Z"/><path class="cls-1" d="M125.55,105.26l-.94,1.45c-.46.71-.79,1-1.4,1a1,1,0,0,1-1-1c0-.46.21-.81,1-1.24.55-.36.76-.51.76-.85a.56.56,0,1,0-1.12,0c0,.24.17.47.49.77l2.23,2.21h-.41l-2-2a1.31,1.31,0,0,1-.56-1,.83.83,0,0,1,.87-.86.81.81,0,0,1,.83.84c0,.37-.21.6-.87,1s-.89.69-.89,1a.72.72,0,0,0,.68.72c.44,0,.73-.16,1.22-.93l.8-1.28Z"/><path class="cls-2" d="M80.9,114.16v-2.32h-.44v-.43h.44v-.31c0-.52.21-.95.82-.95a1.42,1.42,0,0,1,.31,0v.44l-.23,0c-.27,0-.37.15-.37.54v.27H82v.43h-.54v2.32Z"/><path class="cls-2" d="M82.37,112.16c0-.36,0-.59,0-.75h.52c0,.08,0,.3,0,.55a1,1,0,0,1,.91-.61v.52c-.56,0-.91.28-.91,1v1.31h-.53Z"/><path class="cls-2" d="M86.67,112.78a1.32,1.32,0,0,1-1.31,1.45,1.45,1.45,0,1,1,1.31-1.45Zm-2,0c0,.59.29,1,.76,1s.74-.4.74-1-.27-1-.75-1S84.62,112.17,84.62,112.79Z"/><path class="cls-2" d="M87.26,112.11v-.7h.51a3.1,3.1,0,0,1,0,.43.87.87,0,0,1,.86-.49c.52,0,.91.32.91,1.05v1.76H89v-1.7c0-.39-.15-.66-.55-.66s-.69.35-.69.89v1.47h-.53Z"/><path class="cls-2" d="M90,111.41h.46v-.8H91v.8h.6v.43H91v1.56c0,.25.07.38.31.38a.93.93,0,0,0,.23,0v.39a1.54,1.54,0,0,1-.43,0c-.45,0-.64-.23-.64-.7v-1.66H90Z"/><path class="cls-2" d="M92.37,112.89c0,.52.27.9.72.9a.58.58,0,0,0,.62-.4h.54a1.15,1.15,0,0,1-1.18.84,1.25,1.25,0,0,1-1.23-1.41c0-.83.41-1.47,1.26-1.47a1.17,1.17,0,0,1,1.19,1.31v.23Zm1.39-.36c0-.43-.22-.77-.67-.77s-.66.32-.7.77Z"/><path class="cls-2" d="M94.89,112.11c0-.24,0-.49,0-.7h.52c0,.08,0,.35,0,.43a.86.86,0,0,1,.85-.49c.52,0,.92.32.92,1.05v1.76h-.53v-1.7c0-.39-.15-.66-.56-.66s-.68.35-.68.89v1.47h-.53Z"/><path class="cls-2" d="M100.3,110.2v3.19c0,.26,0,.51,0,.77H99.8a2.05,2.05,0,0,1,0-.37.86.86,0,0,1-.85.44c-.7,0-1.14-.57-1.14-1.42s.47-1.46,1.23-1.46c.47,0,.69.18.76.33V110.2Zm-2,2.6c0,.64.29,1,.72,1,.62,0,.74-.46.74-1s-.11-1-.71-1S98.33,112.16,98.33,112.8Z"/><path class="cls-1" d="M104.63,110.18v4h-.27c0-.06,0-.31,0-.45a.89.89,0,0,1-.91.52c-.7,0-1.12-.58-1.12-1.39s.46-1.45,1.19-1.45a.83.83,0,0,1,.84.41v-1.62Zm-2,2.65c0,.74.38,1.14.85,1.14.71,0,.9-.5.9-1.22s-.17-1.09-.86-1.09C103,111.66,102.61,112.08,102.61,112.83Z"/><path class="cls-1" d="M105.58,112.85c0,.69.35,1.12.86,1.12a.77.77,0,0,0,.78-.51h.28a1,1,0,0,1-1.07.77c-.82,0-1.14-.71-1.14-1.4s.38-1.44,1.18-1.44a1.12,1.12,0,0,1,1.1,1.23,1.69,1.69,0,0,1,0,.23Zm1.69-.25a.84.84,0,0,0-.82-.95c-.55,0-.8.39-.86.95Z"/><path class="cls-1" d="M108.24,111.46c.44,1.23.74,2.07.84,2.42h0c.06-.21.37-1,.88-2.42h.3l-1,2.7h-.34l-1-2.7Z"/><path class="cls-1" d="M110.85,112.85c0,.69.36,1.12.87,1.12a.74.74,0,0,0,.77-.51h.29a1,1,0,0,1-1.07.77c-.82,0-1.14-.71-1.14-1.4s.38-1.44,1.17-1.44a1.12,1.12,0,0,1,1.1,1.23v.23Zm1.7-.25a.84.84,0,0,0-.82-.95c-.55,0-.8.39-.86.95Z"/><path class="cls-1" d="M113.52,114.16v-4h.28v4Z"/><path class="cls-1" d="M116.87,112.81a1.27,1.27,0,0,1-1.22,1.42c-.73,0-1.19-.6-1.19-1.42a1.27,1.27,0,0,1,1.22-1.42C116.4,111.39,116.87,112,116.87,112.81Zm-2.11,0c0,.64.34,1.16.91,1.16s.91-.48.91-1.16-.32-1.15-.92-1.15S114.76,112.16,114.76,112.81Z"/><path class="cls-1" d="M117.82,113.77v1.47h-.28v-3.12c0-.22,0-.46,0-.66h.28c0,.1,0,.26,0,.48a1,1,0,0,1,1-.55c.63,0,1.08.54,1.08,1.35,0,1-.52,1.49-1.17,1.49A.88.88,0,0,1,117.82,113.77Zm1.73-1c0-.62-.3-1.09-.83-1.09s-.92.41-.92,1.14.21,1.17.88,1.17S119.55,113.49,119.55,112.75Z"/><path class="cls-1" d="M120.62,112.85c0,.69.35,1.12.87,1.12a.76.76,0,0,0,.77-.51h.29a1,1,0,0,1-1.07.77c-.82,0-1.15-.71-1.15-1.4s.39-1.44,1.18-1.44a1.12,1.12,0,0,1,1.1,1.23v.23Zm1.7-.25c0-.53-.29-.95-.82-.95s-.8.39-.86.95Z"/><path class="cls-1" d="M125.39,110.18v4h-.27c0-.06,0-.31,0-.45a.89.89,0,0,1-.91.52c-.7,0-1.12-.58-1.12-1.39s.46-1.45,1.19-1.45c.54,0,.76.23.84.41v-1.62Zm-2,2.65c0,.74.38,1.14.85,1.14.71,0,.9-.5.9-1.22s-.17-1.09-.86-1.09C123.73,111.66,123.37,112.08,123.37,112.83Z"/></g></g></svg>