<svg xmlns="http://www.w3.org/2000/svg" viewBox="0 0 33.76 29.66"><defs><style>.cls-1{fill:#fff;}</style></defs><g id="Capa_2" data-name="Capa 2"><g id="styles"><g id="Iso"><path class="cls-1" d="M29.23,29.66H14.16a4.55,4.55,0,0,1-4.54-4.54V12.76H2a2,2,0,0,1,0-4H9.62V4.54A4.54,4.54,0,0,1,14.16,0L26.93,0a2,2,0,0,1,0,4h0L14.16,4a.54.54,0,0,0-.54.54V8.76H29.21a4.55,4.55,0,0,1,4.54,4.52V16.8A4.52,4.52,0,0,1,33,19.34a4.53,4.53,0,0,1,.77,2.54v3.24A4.54,4.54,0,0,1,29.23,29.66ZM13.62,12.76V25.12a.54.54,0,0,0,.54.54H29.23a.54.54,0,0,0,.53-.54V21.88a.53.53,0,0,0-.53-.53H22.12v-4h7.1a.55.55,0,0,0,.54-.54V13.3a.55.55,0,0,0-.54-.54Z"/></g></g></g></svg>