<svg xmlns="http://www.w3.org/2000/svg" viewBox="0 0 25.97 27.07"><defs><style>.cls-1{fill:#fff;fill-rule:evenodd;}</style></defs><g id="Capa_2" data-name="Capa 2"><g id="styles"><g id="surface1"><path class="cls-1" d="M16.68.06a7.91,7.91,0,0,1,1.82,0,3.56,3.56,0,0,1,1.42.66c1.74,1.23,3.49,2.44,5.22,3.68.38.27.85.59.82,1.12q0,8.93,0,17.84a4.53,4.53,0,0,1-.18,1.72,1.4,1.4,0,0,1-.77.74,4.45,4.45,0,0,1-1.36.22l-16.88,1a3.11,3.11,0,0,1-1.68-.22A3.1,3.1,0,0,1,4.23,26L.88,21.61A3.65,3.65,0,0,1,0,19.49V3.17A2.29,2.29,0,0,1,.3,1.86a1.71,1.71,0,0,1,1.32-.69ZM2.85,2.59a.63.63,0,0,0-.52.24c-.05.13,0,.25.14.32L4.54,4.8a2.65,2.65,0,0,0,.78.45,3.37,3.37,0,0,0,1,.08q7.89-.5,15.77-1l.15,0A.5.5,0,0,0,22.11,4L19.43,2.1a3,3,0,0,0-2-.58ZM22.7,6.2l-16.39,1a1,1,0,0,0-.72.25,1.23,1.23,0,0,0-.22.79V23.9a1.09,1.09,0,0,0,.32.88,1.61,1.61,0,0,0,1.1.22l16.38-.94a1.1,1.1,0,0,0,.75-.31,1.47,1.47,0,0,0,.26-1V7.16a1,1,0,0,0-.41-.93A3,3,0,0,0,22.7,6.2ZM17.89,9.27c1.22-.07,2.44-.13,3.65-.21.08.33.06.81-.31,1s-.63.13-.95.2c0,3.85,0,7.71,0,11.57a3.56,3.56,0,0,1-2.37.54c-.53-.13-.85-.62-1.17-1-1.73-2.69-3.44-5.39-5.16-8.09v7.84l1.64.37a1.08,1.08,0,0,1-1.06.93l-3.92.22a.71.71,0,0,1,.33-.81c.33-.11.67-.19,1-.29V11.11c-.45,0-.89-.06-1.33-.11a1,1,0,0,1,.8-1.19c1.33-.11,2.67-.18,4-.28l5.37,8.21V10.48l-1.37-.16A.91.91,0,0,1,17.89,9.27Z"/></g></g></g></svg>