<svg xmlns="http://www.w3.org/2000/svg" viewBox="0 0 23.68 23.68"><defs><style>.cls-1{fill:#ff8f71;}</style></defs><g id="Capa_2" data-name="Capa 2"><g id="styles"><path class="cls-1" d="M9.21,0H1.32A1.32,1.32,0,0,0,0,1.32V9.21a1.31,1.31,0,0,0,1.32,1.31H9.21a1.3,1.3,0,0,0,1.31-1.31V1.32A1.31,1.31,0,0,0,9.21,0ZM22.36,13.16H14.47a1.3,1.3,0,0,0-1.31,1.31v7.89a1.31,1.31,0,0,0,1.31,1.32h7.89a1.32,1.32,0,0,0,1.32-1.32V14.47A1.31,1.31,0,0,0,22.36,13.16ZM18.42,0a5.26,5.26,0,1,0,5.26,5.26A5.27,5.27,0,0,0,18.42,0ZM5.26,13.16a5.26,5.26,0,1,0,5.26,5.26A5.27,5.27,0,0,0,5.26,13.16Z"/></g></g></svg>